<svg width="48" height="48" viewBox="0 0 48 48" fill="none" xmlns="http://www.w3.org/2000/svg">
<path d="M24 29.95C21.8 29.95 20 29.25 18.6 27.85C17.2 26.45 16.5 24.65 16.5 22.45C16.5 20.25 17.2 18.45 18.6 17.05C20 15.65 21.8 14.95 24 14.95C26.2 14.95 28 15.65 29.4 17.05C30.8 18.45 31.5 20.25 31.5 22.45C31.5 24.65 30.8 26.45 29.4 27.85C28 29.25 26.2 29.95 24 29.95ZM8 46V41.3C8 40.0333 8.31667 38.95 8.95 38.05C9.58333 37.15 10.4 36.4667 11.4 36C13.6333 35 15.775 34.25 17.825 33.75C19.875 33.25 21.9333 33 24 33C26.0667 33 28.1167 33.2583 30.15 33.775C32.1833 34.2917 34.3167 35.0333 36.55 36C37.5833 36.4667 38.4167 37.15 39.05 38.05C39.6833 38.95 40 40.0333 40 41.3V46H8ZM11 43H37V41.3C37 40.7667 36.8417 40.2583 36.525 39.775C36.2083 39.2917 35.8167 38.9333 35.35 38.7C33.2167 37.6667 31.2667 36.9583 29.5 36.575C27.7333 36.1917 25.9 36 24 36C22.1 36 20.25 36.1917 18.45 36.575C16.65 36.9583 14.7 37.6667 12.6 38.7C12.1333 38.9333 11.75 39.2917 11.45 39.775C11.15 40.2583 11 40.7667 11 41.3V43ZM24 26.95C25.3 26.95 26.375 26.525 27.225 25.675C28.075 24.825 28.5 23.75 28.5 22.45C28.5 21.15 28.075 20.075 27.225 19.225C26.375 18.375 25.3 17.95 24 17.95C22.7 17.95 21.625 18.375 20.775 19.225C19.925 20.075 19.5 21.15 19.5 22.45C19.5 23.75 19.925 24.825 20.775 25.675C21.625 26.525 22.7 26.95 24 26.95Z" fill="black"/>
</svg>
